<svg width="126" height="97" viewBox="0 0 126 97" fill="none" xmlns="http://www.w3.org/2000/svg">
<rect x="36.2036" y="7.41174" width="7.41176" height="7.41176" fill="#C34C4C"/>
<rect x="43.3303" y="14.8235" width="7.41176" height="7.41176" fill="#C34C4C"/>
<rect x="50.7421" y="22.2353" width="7.41176" height="7.41176" fill="#C34C4C"/>
<rect x="59.2941" y="29.647" width="7.41176" height="7.41176" fill="#C34C4C"/>
<rect x="51.8824" y="37.0588" width="7.41176" height="7.41176" fill="#C34C4C"/>
<rect x="59.2941" y="44.4706" width="7.41176" height="7.41176" fill="#C34C4C"/>
<rect x="66.7059" y="44.4706" width="7.41176" height="7.41176" fill="#C34C4C"/>
<rect x="51.8824" y="44.4706" width="7.41176" height="7.41176" fill="#C34C4C"/>
<rect x="44.4706" y="44.4706" width="7.41176" height="7.41176" fill="#C34C4C"/>
<rect x="37.0588" y="44.4706" width="7.41176" height="7.41176" fill="#C34C4C"/>
<rect x="29.6471" y="51.8824" width="7.41176" height="7.41176" fill="#C34C4C"/>
<rect x="22.2353" y="59.2941" width="7.41176" height="7.41176" fill="#C34C4C"/>
<rect x="22.2353" y="51.8824" width="7.41176" height="7.41176" fill="#C34C4C"/>
<rect x="29.6471" y="44.4706" width="7.41176" height="7.41176" fill="#C34C4C"/>
<rect x="22.2353" y="44.4706" width="7.41176" height="7.41176" fill="#C34C4C"/>
<rect x="29.6471" y="37.0588" width="7.41176" height="7.41176" fill="#C34C4C"/>
<rect x="22.2353" y="37.0588" width="7.41176" height="7.41176" fill="#C34C4C"/>
<rect x="14.8235" y="37.0588" width="7.41176" height="7.41176" fill="#C34C4C"/>
<rect x="14.8235" y="44.4706" width="7.41176" height="7.41176" fill="#C34C4C"/>
<rect x="14.8235" y="51.8824" width="7.41176" height="7.41176" fill="#C34C4C"/>
<rect x="14.8235" y="59.2941" width="7.41176" height="7.41176" fill="#C34C4C"/>
<rect x="14.8235" y="66.7059" width="7.41176" height="7.41176" fill="#C34C4C"/>
<rect x="59.2941" y="74.1176" width="7.41176" height="7.41176" fill="#C34C4C"/>
<rect x="51.8824" y="81.5294" width="7.41176" height="7.41176" fill="#C34C4C"/>
<rect x="59.2941" y="81.5294" width="7.41176" height="7.41176" fill="#C34C4C"/>
<rect x="66.7059" y="81.5294" width="7.41176" height="7.41176" fill="#C34C4C"/>
<rect x="44.4706" y="88.9412" width="7.41176" height="7.41176" fill="#C34C4C"/>
<rect x="51.8824" y="88.9412" width="7.41176" height="7.41176" fill="#C34C4C"/>
<rect x="59.2941" y="88.9412" width="7.41176" height="7.41176" fill="#C34C4C"/>
<rect x="66.7059" y="88.9412" width="7.41176" height="7.41176" fill="#C34C4C"/>
<rect x="74.1176" y="88.9412" width="7.41176" height="7.41176" fill="#C34C4C"/>
<rect x="7.41176" y="44.4706" width="7.41176" height="7.41176" fill="#C34C4C"/>
<rect x="7.41176" y="51.8824" width="7.41176" height="7.41176" fill="#C34C4C"/>
<rect x="7.41176" y="59.2941" width="7.41176" height="7.41176" fill="#C34C4C"/>
<rect y="51.8824" width="7.41176" height="7.41176" fill="#C34C4C"/>
<rect x="37.0588" y="37.0588" width="7.41176" height="7.41176" fill="#C34C4C"/>
<rect width="7.41176" height="7.41176" transform="matrix(-1 0 0 1 88.9412 44.4706)" fill="#C34C4C"/>
<rect width="7.41176" height="7.41176" transform="matrix(-1 0 0 1 96.353 51.8824)" fill="#C34C4C"/>
<rect width="7.41176" height="7.41176" transform="matrix(-1 0 0 1 103.765 59.2941)" fill="#C34C4C"/>
<rect width="7.41176" height="7.41176" transform="matrix(-1 0 0 1 103.765 51.8824)" fill="#C34C4C"/>
<rect width="7.41176" height="7.41176" transform="matrix(-1 0 0 1 96.353 44.4706)" fill="#C34C4C"/>
<rect width="7.41176" height="7.41176" transform="matrix(-1 0 0 1 103.765 44.4706)" fill="#C34C4C"/>
<rect width="7.41176" height="7.41176" transform="matrix(-1 0 0 1 96.353 37.0588)" fill="#C34C4C"/>
<rect width="7.41176" height="7.41176" transform="matrix(-1 0 0 1 103.765 37.0588)" fill="#C34C4C"/>
<rect width="7.41176" height="7.41176" transform="matrix(-1 0 0 1 111.176 37.0588)" fill="#C34C4C"/>
<rect width="7.41176" height="7.41176" transform="matrix(-1 0 0 1 111.176 44.4706)" fill="#C34C4C"/>
<rect width="7.41176" height="7.41176" transform="matrix(-1 0 0 1 111.176 51.8824)" fill="#C34C4C"/>
<rect width="7.41176" height="7.41176" transform="matrix(-1 0 0 1 111.176 59.2941)" fill="#C34C4C"/>
<rect width="7.41176" height="7.41176" transform="matrix(-1 0 0 1 111.176 66.7059)" fill="#C34C4C"/>
<rect width="7.41176" height="7.41176" transform="matrix(-1 0 0 1 118.588 44.4706)" fill="#C34C4C"/>
<rect width="7.41176" height="7.41176" transform="matrix(-1 0 0 1 118.588 51.8824)" fill="#C34C4C"/>
<rect width="7.41176" height="7.41176" transform="matrix(-1 0 0 1 118.588 59.2941)" fill="#C34C4C"/>
<rect width="7.41176" height="7.41176" transform="matrix(-1 0 0 1 126 51.8824)" fill="#C34C4C"/>
<rect width="7.41176" height="7.41176" transform="matrix(-1 0 0 1 88.9412 37.0588)" fill="#C34C4C"/>
<rect x="74.1176" y="44.4706" width="7.41176" height="7.41176" fill="#C34C4C"/>
<rect x="44.4706" y="51.8824" width="7.41176" height="7.41176" fill="#C34C4C"/>
<rect x="44.4706" y="59.2941" width="7.41176" height="7.41176" fill="#C34C4C"/>
<rect x="51.8824" y="59.2941" width="7.41176" height="7.41176" fill="#C34C4C"/>
<rect x="59.2941" y="59.2941" width="7.41176" height="7.41176" fill="#C34C4C"/>
<rect x="66.7059" y="59.2941" width="7.41176" height="7.41176" fill="#C34C4C"/>
<rect x="74.1176" y="59.2941" width="7.41176" height="7.41176" fill="#C34C4C"/>
<rect x="51.8824" y="66.7059" width="7.41176" height="7.41176" fill="#C34C4C"/>
<rect x="59.2941" y="66.7059" width="7.41176" height="7.41176" fill="#C34C4C"/>
<rect x="66.7059" y="66.7059" width="7.41176" height="7.41176" fill="#C34C4C"/>
<rect x="51.8824" y="51.8824" width="7.41176" height="7.41176" fill="#C34C4C"/>
<rect x="59.2941" y="51.8824" width="7.41176" height="7.41176" fill="#C34C4C"/>
<rect x="66.7059" y="51.8824" width="7.41176" height="7.41176" fill="#C34C4C"/>
<rect x="74.1176" y="51.8824" width="7.41176" height="7.41176" fill="#C34C4C"/>
<rect x="66.7059" y="37.0588" width="7.41176" height="7.41176" fill="#C34C4C"/>
<rect x="66.7059" y="22.2353" width="7.41176" height="7.41176" fill="#C34C4C"/>
<rect x="73.8326" y="14.8235" width="7.41176" height="7.41176" fill="#C34C4C"/>
<rect x="73.8326" y="7.41174" width="7.41176" height="7.41176" fill="#C34C4C"/>
<rect x="73.8326" width="7.41176" height="7.41176" fill="#C34C4C"/>
<rect x="81.2443" width="7.41176" height="7.41176" fill="#C34C4C"/>
<rect x="81.2443" y="7.41174" width="7.41176" height="7.41176" fill="#C34C4C"/>
<rect x="43.3303" y="7.41174" width="7.41176" height="7.41176" fill="#C34C4C"/>
<rect x="36.2036" width="7.41176" height="7.41176" fill="#C34C4C"/>
<rect x="43.3303" width="7.41176" height="7.41176" fill="#C34C4C"/>
</svg>
