<svg width="197" height="108" viewBox="0 0 197 108" fill="none" xmlns="http://www.w3.org/2000/svg">
<rect x="26.1176" y="81.1906" width="8.70588" height="8.70588" fill="#C34C4C"/>
<rect x="26.1176" y="72.4847" width="8.70588" height="8.70588" fill="#C34C4C"/>
<rect x="17.4118" y="81.1906" width="8.70588" height="8.70588" fill="#C34C4C"/>
<rect x="26.1176" y="89.8965" width="8.70588" height="8.70588" fill="#C34C4C"/>
<rect x="34.8235" y="98.6024" width="8.70588" height="8.70588" fill="#C34C4C"/>
<rect x="34.8235" y="89.8965" width="8.70588" height="8.70588" fill="#C34C4C"/>
<rect x="43.5294" y="89.8965" width="8.70588" height="8.70588" fill="#C34C4C"/>
<rect x="43.5294" y="81.1906" width="8.70588" height="8.70588" fill="#C34C4C"/>
<rect x="43.5294" y="72.8329" width="8.70588" height="8.70588" fill="#C34C4C"/>
<rect x="26.1176" y="55.0729" width="8.70588" height="8.70588" fill="#C34C4C"/>
<rect x="34.8235" y="63.7788" width="8.70588" height="8.70588" fill="#C34C4C"/>
<rect x="43.5294" y="55.0729" width="8.70588" height="8.70588" fill="#C34C4C"/>
<rect x="52.2353" y="55.0729" width="8.70588" height="8.70588" fill="#C34C4C"/>
<rect x="52.2353" y="72.8329" width="8.70588" height="8.70588" fill="#C34C4C"/>
<rect x="43.5294" y="81.1906" width="8.70588" height="8.70588" fill="#C34C4C"/>
<rect x="52.2353" y="81.1906" width="8.70588" height="8.70588" fill="#C34C4C"/>
<rect x="8.70587" y="63.7788" width="8.70588" height="8.70588" fill="#C34C4C"/>
<rect x="8.70587" y="72.4847" width="8.70588" height="8.70588" fill="#C34C4C"/>
<rect y="68.3059" width="8.70588" height="8.70588" fill="#C34C4C"/>
<rect x="8.70587" y="55.0729" width="8.70588" height="8.70588" fill="#C34C4C"/>
<rect x="8.70587" y="51.9388" width="8.70588" height="8.70588" fill="#C34C4C"/>
<rect x="17.4118" y="55.0729" width="8.70588" height="8.70588" fill="#C34C4C"/>
<rect x="17.4118" y="46.3671" width="8.70588" height="8.70588" fill="#C34C4C"/>
<rect x="26.1176" y="46.3671" width="8.70588" height="8.70588" fill="#C34C4C"/>
<rect x="52.2353" y="46.3671" width="8.70588" height="8.70588" fill="#C34C4C"/>
<rect x="43.5294" y="46.3671" width="8.70588" height="8.70588" fill="#C34C4C"/>
<rect x="34.8235" y="55.0729" width="8.70588" height="8.70588" fill="#C34C4C"/>
<rect x="60.9412" y="51.9388" width="8.70588" height="8.70588" fill="#C34C4C"/>
<rect x="60.9412" y="55.0729" width="8.70588" height="8.70588" fill="#C34C4C"/>
<rect x="60.9412" y="63.7788" width="8.70588" height="8.70588" fill="#C34C4C"/>
<rect x="60.9412" y="72.4847" width="8.70588" height="8.70588" fill="#C34C4C"/>
<rect y="59.6" width="8.70588" height="8.70588" fill="#C34C4C"/>
<rect x="69.6471" y="68.6541" width="8.70588" height="8.70588" fill="#C34C4C"/>
<rect x="69.6471" y="59.9482" width="8.70588" height="8.70588" fill="#C34C4C"/>
<rect x="17.4118" y="72.4847" width="8.70588" height="8.70588" fill="#C34C4C"/>
<rect x="26.1176" y="81.1906" width="8.70588" height="8.70588" fill="#C34C4C"/>
<rect x="26.1176" y="72.4847" width="8.70588" height="8.70588" fill="#C34C4C"/>
<rect x="17.4118" y="81.1906" width="8.70588" height="8.70588" fill="#C34C4C"/>
<rect x="26.1176" y="89.8965" width="8.70588" height="8.70588" fill="#C34C4C"/>
<rect x="34.8235" y="98.6024" width="8.70588" height="8.70588" fill="#C34C4C"/>
<rect x="34.8235" y="89.8965" width="8.70588" height="8.70588" fill="#C34C4C"/>
<rect x="43.5294" y="89.8965" width="8.70588" height="8.70588" fill="#C34C4C"/>
<rect x="43.5294" y="81.1906" width="8.70588" height="8.70588" fill="#C34C4C"/>
<rect x="43.5294" y="72.8329" width="8.70588" height="8.70588" fill="#C34C4C"/>
<rect x="26.1176" y="55.0729" width="8.70588" height="8.70588" fill="#C34C4C"/>
<rect x="34.8235" y="63.7788" width="8.70588" height="8.70588" fill="#C34C4C"/>
<rect x="43.5294" y="55.0729" width="8.70588" height="8.70588" fill="#C34C4C"/>
<rect x="52.2353" y="55.0729" width="8.70588" height="8.70588" fill="#C34C4C"/>
<rect x="52.2353" y="72.8329" width="8.70588" height="8.70588" fill="#C34C4C"/>
<rect x="43.5294" y="81.1906" width="8.70588" height="8.70588" fill="#C34C4C"/>
<rect x="52.2353" y="81.1906" width="8.70588" height="8.70588" fill="#C34C4C"/>
<rect x="8.70587" y="63.7788" width="8.70588" height="8.70588" fill="#C34C4C"/>
<rect x="8.70587" y="72.4847" width="8.70588" height="8.70588" fill="#C34C4C"/>
<rect y="68.3059" width="8.70588" height="8.70588" fill="#C34C4C"/>
<rect x="8.70587" y="55.0729" width="8.70588" height="8.70588" fill="#C34C4C"/>
<rect x="8.70587" y="51.9388" width="8.70588" height="8.70588" fill="#C34C4C"/>
<rect x="17.4118" y="55.0729" width="8.70588" height="8.70588" fill="#C34C4C"/>
<rect x="17.4118" y="46.3671" width="8.70588" height="8.70588" fill="#C34C4C"/>
<rect x="26.1176" y="46.3671" width="8.70588" height="8.70588" fill="#C34C4C"/>
<rect x="52.2353" y="46.3671" width="8.70588" height="8.70588" fill="#C34C4C"/>
<rect x="43.5294" y="46.3671" width="8.70588" height="8.70588" fill="#C34C4C"/>
<rect x="34.8235" y="55.0729" width="8.70588" height="8.70588" fill="#C34C4C"/>
<rect x="60.9412" y="51.9388" width="8.70588" height="8.70588" fill="#C34C4C"/>
<rect x="60.9412" y="55.0729" width="8.70588" height="8.70588" fill="#C34C4C"/>
<rect x="60.9412" y="63.7788" width="8.70588" height="8.70588" fill="#C34C4C"/>
<rect x="60.9412" y="72.4847" width="8.70588" height="8.70588" fill="#C34C4C"/>
<rect y="59.6" width="8.70588" height="8.70588" fill="#C34C4C"/>
<rect x="69.6471" y="68.6541" width="8.70588" height="8.70588" fill="#C34C4C"/>
<rect x="69.6471" y="59.9482" width="8.70588" height="8.70588" fill="#C34C4C"/>
<rect x="17.4118" y="72.4847" width="8.70588" height="8.70588" fill="#C34C4C"/>
<rect x="121.882" y="56.1176" width="8.70588" height="8.70588" transform="rotate(-180 121.882 56.1176)" fill="#C34C4C"/>
<rect x="121.882" y="64.8235" width="8.70588" height="8.70588" transform="rotate(-180 121.882 64.8235)" fill="#C34C4C"/>
<rect x="130.588" y="56.1176" width="8.70588" height="8.70588" transform="rotate(-180 130.588 56.1176)" fill="#C34C4C"/>
<rect x="121.882" y="47.4118" width="8.70588" height="8.70588" transform="rotate(-180 121.882 47.4118)" fill="#C34C4C"/>
<rect x="113.176" y="38.7059" width="8.70588" height="8.70588" transform="rotate(-180 113.176 38.7059)" fill="#C34C4C"/>
<rect x="113.176" y="47.4118" width="8.70588" height="8.70588" transform="rotate(-180 113.176 47.4118)" fill="#C34C4C"/>
<rect x="104.471" y="47.4118" width="8.70588" height="8.70588" transform="rotate(-180 104.471 47.4118)" fill="#C34C4C"/>
<rect x="104.471" y="56.1176" width="8.70588" height="8.70588" transform="rotate(-180 104.471 56.1176)" fill="#C34C4C"/>
<rect x="104.471" y="64.4753" width="8.70588" height="8.70588" transform="rotate(-180 104.471 64.4753)" fill="#C34C4C"/>
<rect x="121.882" y="82.2353" width="8.70588" height="8.70588" transform="rotate(-180 121.882 82.2353)" fill="#C34C4C"/>
<rect x="113.176" y="73.5294" width="8.70588" height="8.70588" transform="rotate(-180 113.176 73.5294)" fill="#C34C4C"/>
<rect x="104.471" y="82.2353" width="8.70588" height="8.70588" transform="rotate(-180 104.471 82.2353)" fill="#C34C4C"/>
<rect x="95.7647" y="82.2353" width="8.70588" height="8.70588" transform="rotate(-180 95.7647 82.2353)" fill="#C34C4C"/>
<rect x="95.7647" y="64.4753" width="8.70588" height="8.70588" transform="rotate(-180 95.7647 64.4753)" fill="#C34C4C"/>
<rect x="104.471" y="56.1176" width="8.70588" height="8.70588" transform="rotate(-180 104.471 56.1176)" fill="#C34C4C"/>
<rect x="95.7647" y="56.1176" width="8.70588" height="8.70588" transform="rotate(-180 95.7647 56.1176)" fill="#C34C4C"/>
<rect x="139.294" y="73.5294" width="8.70588" height="8.70588" transform="rotate(-180 139.294 73.5294)" fill="#C34C4C"/>
<rect x="139.294" y="64.8235" width="8.70588" height="8.70588" transform="rotate(-180 139.294 64.8235)" fill="#C34C4C"/>
<rect x="148" y="69.0023" width="8.70588" height="8.70588" transform="rotate(-180 148 69.0023)" fill="#C34C4C"/>
<rect x="139.294" y="82.2353" width="8.70588" height="8.70588" transform="rotate(-180 139.294 82.2353)" fill="#C34C4C"/>
<rect x="139.294" y="85.3694" width="8.70588" height="8.70588" transform="rotate(-180 139.294 85.3694)" fill="#C34C4C"/>
<rect x="130.588" y="82.2353" width="8.70588" height="8.70588" transform="rotate(-180 130.588 82.2353)" fill="#C34C4C"/>
<rect x="130.588" y="90.9412" width="8.70588" height="8.70588" transform="rotate(-180 130.588 90.9412)" fill="#C34C4C"/>
<rect x="121.882" y="90.9412" width="8.70588" height="8.70588" transform="rotate(-180 121.882 90.9412)" fill="#C34C4C"/>
<rect x="95.7647" y="90.9412" width="8.70588" height="8.70588" transform="rotate(-180 95.7647 90.9412)" fill="#C34C4C"/>
<rect x="104.471" y="90.9412" width="8.70588" height="8.70588" transform="rotate(-180 104.471 90.9412)" fill="#C34C4C"/>
<rect x="113.176" y="82.2353" width="8.70588" height="8.70588" transform="rotate(-180 113.176 82.2353)" fill="#C34C4C"/>
<rect x="87.0588" y="85.3694" width="8.70588" height="8.70588" transform="rotate(-180 87.0588 85.3694)" fill="#C34C4C"/>
<rect x="87.0588" y="82.2353" width="8.70588" height="8.70588" transform="rotate(-180 87.0588 82.2353)" fill="#C34C4C"/>
<rect x="87.0588" y="73.5294" width="8.70588" height="8.70588" transform="rotate(-180 87.0588 73.5294)" fill="#C34C4C"/>
<rect x="87.0588" y="64.8235" width="8.70588" height="8.70588" transform="rotate(-180 87.0588 64.8235)" fill="#C34C4C"/>
<rect x="148" y="77.7083" width="8.70588" height="8.70588" transform="rotate(-180 148 77.7083)" fill="#C34C4C"/>
<rect x="78.3529" y="68.6541" width="8.70588" height="8.70588" transform="rotate(-180 78.3529 68.6541)" fill="#C34C4C"/>
<rect x="78.3529" y="77.36" width="8.70588" height="8.70588" transform="rotate(-180 78.3529 77.36)" fill="#C34C4C"/>
<rect x="130.588" y="64.8235" width="8.70588" height="8.70588" transform="rotate(-180 130.588 64.8235)" fill="#C34C4C"/>
<path d="M33.45 6.5C33.6667 6.5 33.8417 6.575 33.975 6.725C34.125 6.85833 34.2 7.03333 34.2 7.25V24.25C34.2 24.45 34.125 24.625 33.975 24.775C33.825 24.925 33.65 25 33.45 25C33.2333 25 33.05 24.925 32.9 24.775C32.7667 24.625 32.7 24.45 32.7 24.25V21.275L33.125 20.925C33.125 21.3917 33 21.8833 32.75 22.4C32.5 22.9 32.1417 23.3667 31.675 23.8C31.225 24.2333 30.6917 24.5833 30.075 24.85C29.475 25.1167 28.825 25.25 28.125 25.25C27.0083 25.25 26 24.9583 25.1 24.375C24.2167 23.7917 23.5167 23 23 22C22.4833 21 22.225 19.8583 22.225 18.575C22.225 17.3083 22.4833 16.175 23 15.175C23.5167 14.1583 24.2167 13.3667 25.1 12.8C25.9833 12.2167 26.9833 11.925 28.1 11.925C28.7833 11.925 29.4333 12.05 30.05 12.3C30.6667 12.55 31.2083 12.8917 31.675 13.325C32.1583 13.7583 32.5333 14.2583 32.8 14.825C33.0833 15.375 33.225 15.95 33.225 16.55L32.7 16.175V7.25C32.7 7.05 32.7667 6.875 32.9 6.725C33.05 6.575 33.2333 6.5 33.45 6.5ZM28.25 23.85C29.15 23.85 29.9333 23.625 30.6 23.175C31.2833 22.7083 31.8167 22.0833 32.2 21.3C32.6 20.5 32.8 19.5917 32.8 18.575C32.8 17.575 32.6 16.6833 32.2 15.9C31.8167 15.1 31.2833 14.475 30.6 14.025C29.9167 13.5583 29.1333 13.325 28.25 13.325C27.3833 13.325 26.6 13.5583 25.9 14.025C25.2167 14.475 24.675 15.1 24.275 15.9C23.8917 16.6833 23.7 17.575 23.7 18.575C23.7 19.575 23.8917 20.475 24.275 21.275C24.675 22.075 25.2167 22.7083 25.9 23.175C26.6 23.625 27.3833 23.85 28.25 23.85ZM38.8861 25C38.6528 25 38.4695 24.925 38.3361 24.775C38.2028 24.625 38.1361 24.45 38.1361 24.25V13.05C38.1361 12.85 38.2028 12.675 38.3361 12.525C38.4861 12.375 38.6695 12.3 38.8861 12.3C39.1028 12.3 39.2778 12.375 39.4111 12.525C39.5611 12.675 39.6361 12.85 39.6361 13.05V16.8L39.2611 16.875C39.3111 16.2917 39.4528 15.7167 39.6861 15.15C39.9361 14.5667 40.2695 14.0333 40.6861 13.55C41.1028 13.0667 41.5945 12.675 42.1611 12.375C42.7445 12.075 43.3945 11.925 44.1111 11.925C44.4111 11.925 44.7028 11.9917 44.9861 12.125C45.2695 12.2417 45.4111 12.4417 45.4111 12.725C45.4111 12.975 45.3445 13.1667 45.2111 13.3C45.0778 13.4333 44.9195 13.5 44.7361 13.5C44.5861 13.5 44.4195 13.4583 44.2361 13.375C44.0695 13.2917 43.8445 13.25 43.5611 13.25C43.0945 13.25 42.6278 13.3917 42.1611 13.675C41.6945 13.9417 41.2695 14.3083 40.8861 14.775C40.5028 15.2417 40.1945 15.7667 39.9611 16.35C39.7445 16.9167 39.6361 17.4917 39.6361 18.075V24.25C39.6361 24.45 39.5611 24.625 39.4111 24.775C39.2611 24.925 39.0861 25 38.8861 25ZM57.9373 12.225C58.154 12.225 58.329 12.3 58.4623 12.45C58.6123 12.6 58.6873 12.7833 58.6873 13V24.25C58.6873 24.45 58.6123 24.625 58.4623 24.775C58.3123 24.925 58.1373 25 57.9373 25C57.7206 25 57.5373 24.925 57.3873 24.775C57.254 24.625 57.1873 24.45 57.1873 24.25V21.275L57.6123 21.075C57.6123 21.5417 57.479 22.0167 57.2123 22.5C56.9623 22.9833 56.6123 23.4333 56.1623 23.85C55.7123 24.2667 55.179 24.6083 54.5623 24.875C53.9623 25.125 53.3123 25.25 52.6123 25.25C51.479 25.25 50.4623 24.9583 49.5623 24.375C48.679 23.7917 47.979 22.9917 47.4623 21.975C46.9623 20.9583 46.7123 19.8167 46.7123 18.55C46.7123 17.25 46.9706 16.1083 47.4873 15.125C48.004 14.125 48.704 13.3417 49.5873 12.775C50.4706 12.2083 51.4706 11.925 52.5873 11.925C53.304 11.925 53.9706 12.05 54.5873 12.3C55.2206 12.55 55.7706 12.8917 56.2373 13.325C56.704 13.7583 57.0623 14.2583 57.3123 14.825C57.579 15.375 57.7123 15.95 57.7123 16.55L57.1873 16.175V13C57.1873 12.7833 57.254 12.6 57.3873 12.45C57.5373 12.3 57.7206 12.225 57.9373 12.225ZM52.7373 23.85C53.6206 23.85 54.404 23.625 55.0873 23.175C55.7706 22.7083 56.304 22.075 56.6873 21.275C57.0873 20.4583 57.2873 19.55 57.2873 18.55C57.2873 17.5667 57.0873 16.6833 56.6873 15.9C56.304 15.1167 55.7706 14.4917 55.0873 14.025C54.404 13.5583 53.6206 13.325 52.7373 13.325C51.8706 13.325 51.0873 13.55 50.3873 14C49.704 14.45 49.1623 15.0667 48.7623 15.85C48.379 16.6333 48.1873 17.5333 48.1873 18.55C48.1873 19.55 48.379 20.4583 48.7623 21.275C49.1623 22.075 49.704 22.7083 50.3873 23.175C51.0706 23.625 51.854 23.85 52.7373 23.85ZM67.9484 11.925C68.6984 11.925 69.3901 12.0583 70.0234 12.325C70.6568 12.575 71.2068 12.9083 71.6734 13.325C72.1568 13.725 72.5318 14.1583 72.7984 14.625C73.0651 15.075 73.1984 15.5083 73.1984 15.925L72.7734 15.325V13C72.7734 12.7833 72.8401 12.6 72.9734 12.45C73.1234 12.3 73.3068 12.225 73.5234 12.225C73.7568 12.225 73.9401 12.3 74.0734 12.45C74.2068 12.6 74.2734 12.7833 74.2734 13V23.825C74.2734 25.1583 73.9984 26.2833 73.4484 27.2C72.8984 28.1167 72.1484 28.8083 71.1984 29.275C70.2651 29.7583 69.1984 30 67.9984 30C67.4151 30 66.7984 29.925 66.1484 29.775C65.5151 29.625 64.9651 29.4333 64.4984 29.2C64.0484 28.9667 63.7984 28.725 63.7484 28.475C63.6151 28.325 63.5484 28.175 63.5484 28.025C63.5651 27.8917 63.6401 27.775 63.7734 27.675C63.9401 27.5583 64.1151 27.5417 64.2984 27.625C64.4818 27.725 64.7568 27.85 65.1234 28C65.2901 28.05 65.5151 28.125 65.7984 28.225C66.0818 28.325 66.4151 28.4083 66.7984 28.475C67.1984 28.5583 67.6151 28.6 68.0484 28.6C69.5484 28.6 70.7068 28.1667 71.5234 27.3C72.3568 26.45 72.7734 25.325 72.7734 23.925V21.525L73.0484 21.6C72.8984 22.2 72.6484 22.725 72.2984 23.175C71.9651 23.625 71.5651 24.0083 71.0984 24.325C70.6318 24.625 70.1234 24.85 69.5734 25C69.0401 25.1667 68.5068 25.25 67.9734 25.25C66.8234 25.25 65.7901 24.9583 64.8734 24.375C63.9568 23.7917 63.2234 23 62.6734 22C62.1401 21 61.8734 19.8583 61.8734 18.575C61.8734 17.3083 62.1401 16.175 62.6734 15.175C63.2234 14.1583 63.9484 13.3667 64.8484 12.8C65.7651 12.2167 66.7984 11.925 67.9484 11.925ZM68.1234 13.325C67.2068 13.325 66.3818 13.5583 65.6484 14.025C64.9318 14.475 64.3651 15.1 63.9484 15.9C63.5484 16.6833 63.3484 17.575 63.3484 18.575C63.3484 19.575 63.5484 20.475 63.9484 21.275C64.3651 22.075 64.9318 22.7083 65.6484 23.175C66.3818 23.625 67.2068 23.85 68.1234 23.85C69.0401 23.85 69.8568 23.625 70.5734 23.175C71.2901 22.725 71.8568 22.1083 72.2734 21.325C72.6901 20.525 72.8984 19.6083 72.8984 18.575C72.8984 17.5417 72.6901 16.6333 72.2734 15.85C71.8568 15.05 71.2901 14.4333 70.5734 14C69.8568 13.55 69.0401 13.325 68.1234 13.325ZM90.81 12.125C91.8433 12.125 92.7266 12.4 93.46 12.95C94.1933 13.4833 94.6933 14.2833 94.96 15.35L94.61 15.45L94.76 15C94.9766 14.5 95.335 14.0333 95.835 13.6C96.3516 13.15 96.935 12.7917 97.585 12.525C98.235 12.2583 98.8933 12.125 99.56 12.125C100.61 12.125 101.452 12.35 102.085 12.8C102.735 13.25 103.202 13.8583 103.485 14.625C103.785 15.375 103.935 16.225 103.935 17.175V24.25C103.935 24.45 103.86 24.625 103.71 24.775C103.577 24.925 103.402 25 103.185 25C102.968 25 102.785 24.925 102.635 24.775C102.502 24.625 102.435 24.45 102.435 24.25V17.25C102.435 16.5667 102.327 15.9417 102.11 15.375C101.893 14.8083 101.552 14.3583 101.085 14.025C100.618 13.6917 99.9933 13.525 99.21 13.525C98.5266 13.525 97.8683 13.6917 97.235 14.025C96.6183 14.3583 96.11 14.8083 95.71 15.375C95.3266 15.9417 95.135 16.5667 95.135 17.25V24.25C95.135 24.45 95.06 24.625 94.91 24.775C94.7766 24.925 94.6016 25 94.385 25C94.1683 25 93.985 24.925 93.835 24.775C93.7016 24.625 93.635 24.45 93.635 24.25V17.175C93.635 16.4917 93.535 15.875 93.335 15.325C93.135 14.775 92.81 14.3417 92.36 14.025C91.91 13.6917 91.3016 13.525 90.535 13.525C89.8516 13.525 89.2016 13.6917 88.585 14.025C87.985 14.3417 87.4933 14.775 87.11 15.325C86.7433 15.875 86.56 16.4917 86.56 17.175V24.25C86.56 24.45 86.485 24.625 86.335 24.775C86.185 24.925 86.01 25 85.81 25C85.5766 25 85.3933 24.925 85.26 24.775C85.1266 24.625 85.06 24.45 85.06 24.25V13.05C85.06 12.85 85.1266 12.675 85.26 12.525C85.41 12.375 85.5933 12.3 85.81 12.3C86.0266 12.3 86.2016 12.375 86.335 12.525C86.485 12.675 86.56 12.85 86.56 13.05V15.375L85.885 16.3C85.935 15.8 86.0933 15.3 86.36 14.8C86.6433 14.3 87.01 13.85 87.46 13.45C87.91 13.05 88.4183 12.7333 88.985 12.5C89.5683 12.25 90.1766 12.125 90.81 12.125ZM113.638 25.25C112.354 25.25 111.221 24.975 110.238 24.425C109.254 23.875 108.488 23.1083 107.938 22.125C107.388 21.1417 107.113 19.9917 107.113 18.675C107.113 17.2583 107.388 16.05 107.938 15.05C108.504 14.05 109.229 13.2833 110.113 12.75C111.013 12.2 111.963 11.925 112.963 11.925C113.696 11.925 114.404 12.0583 115.088 12.325C115.788 12.575 116.404 12.9583 116.938 13.475C117.488 13.975 117.921 14.5917 118.238 15.325C118.571 16.0583 118.754 16.9083 118.788 17.875C118.771 18.075 118.688 18.25 118.538 18.4C118.388 18.5333 118.213 18.6 118.013 18.6H107.988L107.688 17.25H117.538L117.213 17.55V17.05C117.146 16.2667 116.896 15.6 116.463 15.05C116.029 14.5 115.504 14.0833 114.888 13.8C114.271 13.5167 113.629 13.375 112.963 13.375C112.463 13.375 111.946 13.475 111.413 13.675C110.896 13.875 110.421 14.1917 109.988 14.625C109.571 15.0417 109.229 15.5833 108.963 16.25C108.696 16.9 108.563 17.675 108.563 18.575C108.563 19.5583 108.763 20.45 109.163 21.25C109.563 22.05 110.138 22.6833 110.888 23.15C111.654 23.6167 112.563 23.85 113.613 23.85C114.196 23.85 114.721 23.7667 115.188 23.6C115.654 23.4333 116.063 23.2167 116.413 22.95C116.763 22.6667 117.054 22.375 117.288 22.075C117.471 21.925 117.654 21.85 117.838 21.85C118.004 21.85 118.146 21.9167 118.263 22.05C118.396 22.1833 118.463 22.3333 118.463 22.5C118.463 22.7 118.379 22.875 118.213 23.025C117.713 23.625 117.063 24.15 116.263 24.6C115.463 25.0333 114.588 25.25 113.638 25.25Z" fill="#C34C4C"/>
</svg>
