<svg width="85" height="84" viewBox="0 0 85 84" fill="none" xmlns="http://www.w3.org/2000/svg">
<rect x="17" y="4.15839" width="22" height="15.802" fill="#C44C4C"/>
<rect x="22" width="12" height="24.1188" fill="#C44C4C"/>
<rect y="24.1188" width="22" height="15.802" fill="#C44C4C"/>
<rect x="5" y="19.9604" width="12" height="24.1188" fill="#C44C4C"/>
<rect y="44.0792" width="22" height="15.802" fill="#C44C4C"/>
<rect x="5" y="39.9208" width="12" height="24.1188" fill="#C44C4C"/>
<rect x="17" y="64.0396" width="22" height="15.802" fill="#C44C4C"/>
<rect x="22" y="59.8812" width="12" height="24.1188" fill="#C44C4C"/>
<rect x="46" y="64.0396" width="22" height="15.802" fill="#C44C4C"/>
<rect x="51" y="59.8812" width="12" height="24.1188" fill="#C44C4C"/>
<rect x="63" y="44.0792" width="22" height="15.802" fill="#C44C4C"/>
<rect x="68" y="39.9208" width="12" height="24.1188" fill="#C44C4C"/>
<rect x="63" y="24.1188" width="22" height="15.802" fill="#C44C4C"/>
<rect x="68" y="19.9604" width="12" height="24.1188" fill="#C44C4C"/>
<rect x="46" y="4.15839" width="22" height="15.802" fill="#C44C4C"/>
<rect x="51" width="12" height="24.1188" fill="#C44C4C"/>
<rect x="34" y="24.1188" width="5" height="15.802" fill="#C44C4C"/>
<rect x="46" y="24.1188" width="5" height="15.802" fill="#C44C4C"/>
<rect x="34" y="44.0792" width="5" height="15.802" fill="#C44C4C"/>
<rect x="46" y="44.0792" width="5" height="15.802" fill="#C44C4C"/>
<rect x="63" y="39.9208" width="4.15842" height="12" transform="rotate(90 63 39.9208)" fill="#C44C4C"/>
<rect x="34" y="39.9208" width="4.15842" height="12" transform="rotate(90 34 39.9208)" fill="#C44C4C"/>
<rect x="39" y="19.9604" width="7" height="4.15842" fill="#C44C4C"/>
<rect x="39" y="19.9604" width="7" height="4.15842" fill="#C44C4C"/>
<rect x="39" y="59.8812" width="7" height="4.15842" fill="#C44C4C"/>
</svg>
