<svg width="126" height="97" viewBox="0 0 126 97" fill="none" xmlns="http://www.w3.org/2000/svg">
<path d="M36.2036 7.41179H43.6154V14.8236H36.2036V7.41179Z" fill="#C34C4C"/>
<path d="M43.3303 14.8235H50.7421V22.2353H43.3303V14.8235Z" fill="#C34C4C"/>
<path d="M50.7421 22.2353L58.1539 22.2353V29.6471H50.7421L50.7421 22.2353Z" fill="#C34C4C"/>
<path d="M59.2941 29.6471H66.7059V37.0588H59.2941V29.6471Z" fill="#C34C4C"/>
<path d="M51.8824 37.0588L59.2941 37.0588L59.2941 44.4706H51.8824V37.0588Z" fill="#C34C4C"/>
<path d="M59.2941 44.4706L66.7059 44.4706V51.8823H59.2941L59.2941 44.4706Z" fill="#C34C4C"/>
<path d="M66.7059 44.4706H74.1176V51.8823H66.7059V44.4706Z" fill="#C34C4C"/>
<path d="M51.8824 44.4706H59.2941L59.2941 51.8823H51.8824V44.4706Z" fill="#C34C4C"/>
<path d="M44.4706 44.4706L51.8824 44.4706V51.8823H44.4706V44.4706Z" fill="#C34C4C"/>
<path d="M37.0588 44.4706H44.4706V51.8823H37.0588V44.4706Z" fill="#C34C4C"/>
<path d="M29.6471 51.8824L37.0588 51.8823L37.0588 59.2941H29.6471V51.8824Z" fill="#C34C4C"/>
<path d="M22.2353 59.2941L29.6471 59.2941V66.7059H22.2353V59.2941Z" fill="#C34C4C"/>
<path d="M22.2353 51.8824H29.6471V59.2941L22.2353 59.2941V51.8824Z" fill="#C34C4C"/>
<path d="M29.6471 44.4706H37.0588V51.8823L29.6471 51.8824V44.4706Z" fill="#C34C4C"/>
<path d="M22.2353 44.4706H29.6471V51.8824H22.2353V44.4706Z" fill="#C34C4C"/>
<path d="M29.6471 37.0588H37.0588L37.0588 44.4706H29.6471V37.0588Z" fill="#C34C4C"/>
<path d="M22.2353 37.0588H29.6471V44.4706H22.2353V37.0588Z" fill="#C34C4C"/>
<path d="M14.8235 37.0588H22.2353V44.4706L14.8235 44.4706V37.0588Z" fill="#C34C4C"/>
<path d="M14.8235 44.4706L22.2353 44.4706V51.8824L14.8235 51.8823V44.4706Z" fill="#C34C4C"/>
<path d="M14.8235 51.8823L22.2353 51.8824V59.2941L14.8235 59.2941V51.8823Z" fill="#C34C4C"/>
<path d="M14.8235 59.2941L22.2353 59.2941V66.7059H14.8235V59.2941Z" fill="#C34C4C"/>
<path d="M14.8235 66.7059H22.2353L22.2353 74.1177H14.8235V66.7059Z" fill="#C34C4C"/>
<path d="M59.2941 74.1176H66.7059V81.5294H59.2941V74.1176Z" fill="#C34C4C"/>
<path d="M51.8824 81.5294L59.2941 81.5294L59.2941 88.9412H51.8824V81.5294Z" fill="#C34C4C"/>
<path d="M59.2941 81.5294H66.7059V88.9412H59.2941L59.2941 81.5294Z" fill="#C34C4C"/>
<path d="M66.7059 81.5294L74.1176 81.5294V88.9412H66.7059V81.5294Z" fill="#C34C4C"/>
<path d="M44.4706 88.9412L51.8824 88.9412L51.8824 96.3529H44.4706V88.9412Z" fill="#C34C4C"/>
<path d="M51.8824 88.9412H59.2941V96.3529H51.8824L51.8824 88.9412Z" fill="#C34C4C"/>
<path d="M59.2941 88.9412H66.7059V96.3529H59.2941V88.9412Z" fill="#C34C4C"/>
<path d="M66.7059 88.9412H74.1176V96.3529H66.7059V88.9412Z" fill="#C34C4C"/>
<path d="M74.1176 88.9412L81.5294 88.9412V96.3529H74.1176V88.9412Z" fill="#C34C4C"/>
<path d="M7.41176 44.4706L14.8235 44.4706V51.8823H7.41176V44.4706Z" fill="#C34C4C"/>
<path d="M7.41176 51.8823H14.8235V59.2941H7.41176V51.8823Z" fill="#C34C4C"/>
<path d="M7.41176 59.2941H14.8235V66.7059H7.41176V59.2941Z" fill="#C34C4C"/>
<path d="M0 51.8824L7.41176 51.8823V59.2941H0V51.8824Z" fill="#C34C4C"/>
<path d="M37.0588 37.0588H44.4706L44.4706 44.4706H37.0588L37.0588 37.0588Z" fill="#C34C4C"/>
<path d="M88.9412 44.4706H81.5294V51.8823H88.9412V44.4706Z" fill="#C34C4C"/>
<path d="M96.353 51.8824L88.9412 51.8823V59.2941H96.353V51.8824Z" fill="#C34C4C"/>
<path d="M103.765 59.2941L96.353 59.2941L96.3529 66.7059H103.765V59.2941Z" fill="#C34C4C"/>
<path d="M103.765 51.8824H96.353V59.2941L103.765 59.2941V51.8824Z" fill="#C34C4C"/>
<path d="M96.353 44.4706H88.9412V51.8823L96.353 51.8824V44.4706Z" fill="#C34C4C"/>
<path d="M103.765 44.4706H96.353V51.8824H103.765V44.4706Z" fill="#C34C4C"/>
<path d="M96.353 37.0588H88.9412V44.4706H96.353V37.0588Z" fill="#C34C4C"/>
<path d="M103.765 37.0588H96.353V44.4706H103.765V37.0588Z" fill="#C34C4C"/>
<path d="M111.176 37.0588H103.765V44.4706L111.176 44.4706V37.0588Z" fill="#C34C4C"/>
<path d="M111.176 44.4706L103.765 44.4706V51.8824L111.176 51.8823V44.4706Z" fill="#C34C4C"/>
<path d="M111.176 51.8823L103.765 51.8824V59.2941L111.176 59.2941V51.8823Z" fill="#C34C4C"/>
<path d="M111.176 59.2941L103.765 59.2941V66.7059H111.176V59.2941Z" fill="#C34C4C"/>
<path d="M111.176 66.7059H103.765V74.1177H111.176V66.7059Z" fill="#C34C4C"/>
<path d="M118.588 44.4706L111.176 44.4706V51.8823H118.588V44.4706Z" fill="#C34C4C"/>
<path d="M118.588 51.8823H111.176V59.2941H118.588V51.8823Z" fill="#C34C4C"/>
<path d="M118.588 59.2941H111.176V66.7059H118.588V59.2941Z" fill="#C34C4C"/>
<path d="M126 51.8824L118.588 51.8823V59.2941H126V51.8824Z" fill="#C34C4C"/>
<path d="M88.9412 37.0588H81.5294V44.4706H88.9412V37.0588Z" fill="#C34C4C"/>
<path d="M74.1176 44.4706H81.5294V51.8823H74.1176V44.4706Z" fill="#C34C4C"/>
<path d="M44.4706 51.8823H51.8824L51.8824 59.2941H44.4706V51.8823Z" fill="#C34C4C"/>
<path d="M44.4706 59.2941H51.8824V66.7059H44.4706V59.2941Z" fill="#C34C4C"/>
<path d="M51.8824 59.2941L59.2941 59.2941V66.7059H51.8824V59.2941Z" fill="#C34C4C"/>
<path d="M59.2941 59.2941H66.7059V66.7059H59.2941V59.2941Z" fill="#C34C4C"/>
<path d="M66.7059 59.2941H74.1176V66.7059H66.7059V59.2941Z" fill="#C34C4C"/>
<path d="M74.1176 59.2941H81.5294V66.7059H74.1176V59.2941Z" fill="#C34C4C"/>
<path d="M51.8824 66.7059H59.2941L59.2941 74.1176L51.8824 74.1177L51.8824 66.7059Z" fill="#C34C4C"/>
<path d="M59.2941 66.7059H66.7059V74.1176H59.2941L59.2941 66.7059Z" fill="#C34C4C"/>
<path d="M66.7059 66.7059H74.1176V74.1177L66.7059 74.1176V66.7059Z" fill="#C34C4C"/>
<path d="M51.8824 51.8823H59.2941L59.2941 59.2941L51.8824 59.2941L51.8824 51.8823Z" fill="#C34C4C"/>
<path d="M59.2941 51.8823H66.7059V59.2941H59.2941L59.2941 51.8823Z" fill="#C34C4C"/>
<path d="M66.7059 51.8823H74.1176V59.2941H66.7059V51.8823Z" fill="#C34C4C"/>
<path d="M74.1176 51.8823H81.5294L81.5294 59.2941H74.1176V51.8823Z" fill="#C34C4C"/>
<path d="M66.7059 37.0588L74.1176 37.0588V44.4706H66.7059V37.0588Z" fill="#C34C4C"/>
<path d="M66.7059 22.2353H74.1176V29.6471L66.7059 29.6471V22.2353Z" fill="#C34C4C"/>
<path d="M73.8326 14.8235H81.2443V22.2353H73.8326V14.8235Z" fill="#C34C4C"/>
<path d="M73.8326 7.41179H81.2443V14.8235H73.8326V7.41179Z" fill="#C34C4C"/>
<path d="M73.8326 0H81.2443V7.41179H73.8326V0Z" fill="#C34C4C"/>
<path d="M81.2443 0H88.6561V7.41176L81.2443 7.41179V0Z" fill="#C34C4C"/>
<path d="M81.2443 7.41179L88.6561 7.41176V14.8236L81.2443 14.8235V7.41179Z" fill="#C34C4C"/>
<path d="M43.3303 7.41179H50.7421V14.8235H43.3303V7.41179Z" fill="#C34C4C"/>
<path d="M36.2036 0H43.6154V7.41179H36.2036V0Z" fill="#C34C4C"/>
<path d="M43.3303 0H50.7421V7.41179H43.3303V0Z" fill="#C34C4C"/>
</svg>
